<svg xmlns="http://www.w3.org/2000/svg" width="64" height="32" viewBox="0 0 64 32">
  <g id="Logo" transform="translate(-61.033 -20)">
    <rect id="Rectangle_24517" data-name="Rectangle 24517" width="64" height="32" transform="translate(61.033 20)" fill="#fff" opacity="0"/>
    <g id="Group_17997" data-name="Group 17997" transform="translate(-77.967 -3)">
      <path id="Path_2499" data-name="Path 2499" d="M457.7,186.376c-4.808,0-6.832-3.946-6.832-8.377s2.025-8.377,6.832-8.377,6.835,3.945,6.835,8.377-2.026,8.377-6.835,8.377m0-19.376c-6.668,0-12,4.221-12,11s5.331,11,12,11,12-4.222,12-11-5.331-11-12-11" transform="translate(-266.702 -139)" fill="#fdb913"/>
      <path id="Path_2500" data-name="Path 2500" d="M228.321,190.045h-2.863V173.88h2.863c6.111,0,8.576,3.443,8.576,8.083s-2.465,8.082-8.576,8.082m-17.126,0h-7.028v-6.887h7.028c2.83,0,4.189,1.352,4.189,3.444s-1.36,3.443-4.189,3.443m-7.028-16.165h5.1c2.617,0,3.869,1.249,3.869,3.181s-1.255,3.18-3.869,3.18h-5.1Zm35.385,8.09A11.545,11.545,0,0,1,241,176.224c-1.975-3.439-6.061-5.26-12.077-5.26h-8.629v13.347a5.993,5.993,0,0,0-4.662-3.319,4.817,4.817,0,0,0,2.863-4.585c0-3.29-2.141-5.438-7.209-5.438l-.006,0H199v22h13.408c3.984,0,6.826-1.125,7.886-3.766v3.766h8.629c6.012,0,10.1-1.819,12.072-5.254a11.545,11.545,0,0,1-1.444-5.74" transform="translate(-60 -142.964)" fill="#fff"/>
    </g>
  </g>
</svg>
